<svg xmlns="http://www.w3.org/2000/svg" width="26.223" height="32.206" viewBox="0 0 26.223 32.206"><defs><style>.a,.c{fill:#fff;}.a{stroke:#484848;stroke-linecap:round;stroke-linejoin:round;stroke-width:2px;}.b{fill:#444;}</style></defs><g transform="translate(1 1)"><path class="a" d="M9.262,23.468A11.949,11.949,0,0,1,0,11.9,12.007,12.007,0,0,1,12.111,0,12.007,12.007,0,0,1,24.223,11.9a11.955,11.955,0,0,1-9.558,11.634l-2.688,6.672Z"/><g transform="translate(6.285 6.506)"><path class="b" d="M551.323,274.474H546.54a1.57,1.57,0,0,1-1.5-.907,1.469,1.469,0,0,1-.148-.683q0-2.971,0-5.941a1.547,1.547,0,0,1,1.351-1.557,1.925,1.925,0,0,1,.3-.014c.611,0,1.222,0,1.833,0a.131.131,0,0,0,.138-.084c.175-.351.359-.7.531-1.051a.855.855,0,0,1,.836-.508q1.44,0,2.881,0a.861.861,0,0,1,.845.514c.17.35.353.693.526,1.041a.138.138,0,0,0,.146.089c.626,0,1.253.005,1.879,0a1.589,1.589,0,0,1,1.577,1.263,1.737,1.737,0,0,1,.032.333q0,2.96,0,5.919a1.567,1.567,0,0,1-1.307,1.565,2.268,2.268,0,0,1-.386.023Q553.7,274.475,551.323,274.474Zm3.083-4.758a3.085,3.085,0,1,0-3.087,3.015A3.061,3.061,0,0,0,554.407,269.716Z" transform="translate(-544.893 -263.729)"/><path class="b" d="M642.076,355.2a2.061,2.061,0,1,1,2.1-2.058A2.084,2.084,0,0,1,642.076,355.2Z" transform="translate(-635.646 -347.172)"/></g><ellipse class="c" cx="3.815" cy="3.748" rx="3.815" ry="3.748" transform="translate(2.47 4.934)"/><path class="b" d="M2.725,0l.681,2.008,2.044.669-2.044.669L2.725,5.355,2.044,3.347,0,2.677l2.044-.669Z" transform="translate(3.56 6.005)"/></g></svg>