<svg xmlns="http://www.w3.org/2000/svg" width="15.318" height="21.474" viewBox="0 0 15.318 21.474"><defs><style>.a{fill:#484848;}</style></defs><path class="a" d="M532.376,130.552a5.442,5.442,0,0,1-.743,2.935l-2.415,4.8q-1.393,2.768-2.787,5.535a1.946,1.946,0,0,1-2.1.95,1.806,1.806,0,0,1-1.34-.986q-1.488-2.956-2.98-5.91-1.222-2.422-2.443-4.845a4.85,4.85,0,0,1-.471-1.728,7.746,7.746,0,0,1,.021-1.749,6.337,6.337,0,0,1,1.092-2.86,7.808,7.808,0,0,1,2.935-2.552,7.406,7.406,0,0,1,2.593-.752,8.668,8.668,0,0,1,3.054.2,7.554,7.554,0,0,1,3.425,1.93,7.089,7.089,0,0,1,1.575,2.184A6.917,6.917,0,0,1,532.376,130.552Zm-7.638-3.638a3.589,3.589,0,1,0,3.814,3.547A3.731,3.731,0,0,0,524.738,126.914Z" transform="translate(-517.058 -123.335)"/></svg>